<mxfile host="app.diagrams.net" agent="Mozilla/5.0 (Windows NT 10.0; Win64; x64) AppleWebKit/537.36 (KHTML, like Gecko) Chrome/132.0.0.0 Safari/537.36" version="26.0.11">
  <diagram name="Page-1" id="Fwt29bszVT2QToxDOHqt">
    <mxGraphModel dx="1221" dy="1859" grid="1" gridSize="10" guides="1" tooltips="1" connect="1" arrows="1" fold="1" page="1" pageScale="1" pageWidth="850" pageHeight="1100" math="0" shadow="0">
      <root>
        <mxCell id="0" />
        <mxCell id="1" parent="0" />
        <mxCell id="QWN_Ijj7qbbuKalE-Hb8-25" value="" style="edgeStyle=orthogonalEdgeStyle;rounded=0;orthogonalLoop=1;jettySize=auto;html=1;" edge="1" parent="1" source="QWN_Ijj7qbbuKalE-Hb8-2" target="QWN_Ijj7qbbuKalE-Hb8-3">
          <mxGeometry relative="1" as="geometry" />
        </mxCell>
        <mxCell id="QWN_Ijj7qbbuKalE-Hb8-2" value="database" style="shape=cylinder3;whiteSpace=wrap;html=1;boundedLbl=1;backgroundOutline=1;size=15;" vertex="1" parent="1">
          <mxGeometry x="420" y="160" width="60" height="80" as="geometry" />
        </mxCell>
        <mxCell id="QWN_Ijj7qbbuKalE-Hb8-3" value="vps | cache | Local Storage" style="ellipse;shape=cloud;whiteSpace=wrap;html=1;" vertex="1" parent="1">
          <mxGeometry x="325" y="30" width="250" height="80" as="geometry" />
        </mxCell>
        <mxCell id="QWN_Ijj7qbbuKalE-Hb8-15" value="" style="edgeStyle=orthogonalEdgeStyle;rounded=0;orthogonalLoop=1;jettySize=auto;html=1;" edge="1" parent="1" source="QWN_Ijj7qbbuKalE-Hb8-13" target="QWN_Ijj7qbbuKalE-Hb8-14">
          <mxGeometry relative="1" as="geometry" />
        </mxCell>
        <mxCell id="QWN_Ijj7qbbuKalE-Hb8-13" value="Actor" style="shape=umlActor;verticalLabelPosition=bottom;verticalAlign=top;html=1;outlineConnect=0;" vertex="1" parent="1">
          <mxGeometry x="270" y="130" width="30" height="60" as="geometry" />
        </mxCell>
        <mxCell id="QWN_Ijj7qbbuKalE-Hb8-21" value="" style="edgeStyle=orthogonalEdgeStyle;rounded=0;orthogonalLoop=1;jettySize=auto;html=1;" edge="1" parent="1" source="QWN_Ijj7qbbuKalE-Hb8-14" target="QWN_Ijj7qbbuKalE-Hb8-20">
          <mxGeometry relative="1" as="geometry" />
        </mxCell>
        <mxCell id="QWN_Ijj7qbbuKalE-Hb8-14" value="Actor" style="shape=umlActor;verticalLabelPosition=bottom;verticalAlign=top;html=1;outlineConnect=0;" vertex="1" parent="1">
          <mxGeometry x="380" y="130" width="30" height="60" as="geometry" />
        </mxCell>
        <mxCell id="QWN_Ijj7qbbuKalE-Hb8-19" value="" style="edgeStyle=orthogonalEdgeStyle;rounded=0;orthogonalLoop=1;jettySize=auto;html=1;" edge="1" parent="1" source="QWN_Ijj7qbbuKalE-Hb8-16" target="QWN_Ijj7qbbuKalE-Hb8-18">
          <mxGeometry relative="1" as="geometry" />
        </mxCell>
        <mxCell id="QWN_Ijj7qbbuKalE-Hb8-23" value="" style="edgeStyle=orthogonalEdgeStyle;rounded=0;orthogonalLoop=1;jettySize=auto;html=1;" edge="1" parent="1" source="QWN_Ijj7qbbuKalE-Hb8-16" target="QWN_Ijj7qbbuKalE-Hb8-22">
          <mxGeometry relative="1" as="geometry" />
        </mxCell>
        <mxCell id="QWN_Ijj7qbbuKalE-Hb8-16" value="Actor" style="shape=umlActor;verticalLabelPosition=bottom;verticalAlign=top;html=1;outlineConnect=0;" vertex="1" parent="1">
          <mxGeometry x="490" y="130" width="30" height="60" as="geometry" />
        </mxCell>
        <mxCell id="QWN_Ijj7qbbuKalE-Hb8-18" value="Actor" style="shape=umlActor;verticalLabelPosition=bottom;verticalAlign=top;html=1;outlineConnect=0;" vertex="1" parent="1">
          <mxGeometry x="600" y="130" width="30" height="60" as="geometry" />
        </mxCell>
        <mxCell id="QWN_Ijj7qbbuKalE-Hb8-20" value="Actor" style="shape=umlActor;verticalLabelPosition=bottom;verticalAlign=top;html=1;outlineConnect=0;" vertex="1" parent="1">
          <mxGeometry x="320" y="-20" width="30" height="60" as="geometry" />
        </mxCell>
        <mxCell id="QWN_Ijj7qbbuKalE-Hb8-22" value="Actor" style="shape=umlActor;verticalLabelPosition=bottom;verticalAlign=top;html=1;outlineConnect=0;" vertex="1" parent="1">
          <mxGeometry x="550" y="-20" width="30" height="60" as="geometry" />
        </mxCell>
      </root>
    </mxGraphModel>
  </diagram>
</mxfile>
